<?xml version="1.0" standalone="no"?><svg xmlns="http://www.w3.org/2000/svg" viewBox="0 0 1440 320"><path fill="#000b76" fill-opacity="0.73" d="M0,288L40,261.3C80,235,160,181,240,176C320,171,400,213,480,208C560,203,640,149,720,138.7C800,128,880,160,960,149.3C1040,139,1120,85,1200,101.3C1280,117,1360,203,1400,245.3L1440,288L1440,320L1400,320C1360,320,1280,320,1200,320C1120,320,1040,320,960,320C880,320,800,320,720,320C640,320,560,320,480,320C400,320,320,320,240,320C160,320,80,320,40,320L0,320Z"></path></svg>